<svg width="168" height="164" viewBox="0 0 168 164" fill="none" xmlns="http://www.w3.org/2000/svg">
<path d="M88.7755 79.3027L59.7502 48.7519C57.9845 46.8934 57 44.4278 57 41.8642V15C57 9.47715 61.4772 5 67 5H153C158.523 5 163 9.47716 163 15V149C163 154.523 158.523 159 153 159H67C61.4772 159 57 154.523 57 149V130.517C57 127.953 57.9845 125.488 59.7502 123.629L88.7755 93.0782C92.4424 89.2185 92.4424 83.1625 88.7755 79.3027Z" stroke="#404040" stroke-width="10"/>
<path d="M0 77.3128C0 74.5513 2.23858 72.3128 5 72.3128H52C54.7614 72.3128 57 74.5513 57 77.3128V95.6873C57 98.4487 54.7614 100.687 52 100.687H5C2.23858 100.687 0 98.4487 0 95.6872V77.3128Z" fill="#404040"/>
<path d="M69.2675 82.9008C71.3066 84.8671 71.3066 88.133 69.2675 90.0992L39.4707 118.832C36.2956 121.894 31 119.643 31 115.233L31 57.7674C31 53.3565 36.2956 51.1064 39.4707 54.1682L69.2675 82.9008Z" fill="#404040"/>
<path fill-rule="evenodd" clip-rule="evenodd" d="M146 138.5C146 139.881 144.881 141 143.5 141H76.5C75.1193 141 74 139.881 74 138.5V138.5C74 137.119 75.1193 136 76.5 136H143.5C144.881 136 146 137.119 146 138.5V138.5Z" fill="#404040" stroke="#404040" stroke-width="5"/>
<path fill-rule="evenodd" clip-rule="evenodd" d="M146 28.5C146 29.8807 144.881 31 143.5 31H76.5C75.1193 31 74 29.8807 74 28.5V28.5C74 27.1193 75.1193 26 76.5 26H143.5C144.881 26 146 27.1193 146 28.5V28.5Z" fill="#404040" stroke="#404040" stroke-width="5"/>
<path fill-rule="evenodd" clip-rule="evenodd" d="M146 111C146 112.657 144.657 114 143 114H101C99.3431 114 98 112.657 98 111V111C98 109.343 99.3431 108 101 108H143C144.657 108 146 109.343 146 111V111Z" fill="#404040" stroke="#404040" stroke-width="5"/>
<path fill-rule="evenodd" clip-rule="evenodd" d="M146 56C146 57.6569 144.657 59 143 59H101C99.3431 59 98 57.6569 98 56V56C98 54.3431 99.3431 53 101 53H143C144.657 53 146 54.3431 146 56V56Z" fill="#404040" stroke="#404040" stroke-width="5"/>
<path fill-rule="evenodd" clip-rule="evenodd" d="M146 83.5C146 84.8807 144.881 86 143.5 86H112.5C111.119 86 110 84.8807 110 83.5V83.5C110 82.1193 111.119 81 112.5 81H143.5C144.881 81 146 82.1193 146 83.5V83.5Z" fill="#404040" stroke="#404040" stroke-width="5"/>
</svg>
